# xmcd
#
# Track frame offsets: 
#        150
#        30571
#        52185
#        72436
#        89779
#        114361
#        136404
#        142607
#        163251
#        181877
#        200424
#
# Disc length: 3012 seconds
#
# Revision: 0
# Processed by: cddbd v1.5.2PL0 Copyright (c) Steve Scherf et al.
# Submitted via: ExactAudioCopy v0.95b4
#
DISCID=9e0bc20b
DTITLE=David Kraai and The Saddle Tramps - high and lonesome
DYEAR=2007
DGENRE=Folk/Rock
TTITLE0=The Girl Without Country
TTITLE1=How Do
TTITLE2=Rings Cannot Hold Them In
TTITLE3=Had Been
TTITLE4=You Can't Trust
TTITLE5=Dead Again
TTITLE6=Givingthanks Song
TTITLE7=Leading Ladies and Final Bows
TTITLE8=Cornflower
TTITLE9=Tin Roof Star
TTITLE10=Angels In Her Eyes, Devil In Her Grin
EXTD=
EXTT0=
EXTT1=
EXTT2=
EXTT3=
EXTT4=
EXTT5=
EXTT6=
EXTT7=
EXTT8=
EXTT9=
EXTT10=
PLAYORDER=
